<?xml version="1.0" standalone="no"?><!DOCTYPE svg PUBLIC "-//W3C//DTD SVG 1.1//EN" "http://www.w3.org/Graphics/SVG/1.1/DTD/svg11.dtd"><svg t="1710491849162" class="icon" viewBox="0 0 1024 1024" version="1.1" xmlns="http://www.w3.org/2000/svg" p-id="1592" xmlns:xlink="http://www.w3.org/1999/xlink" width="200" height="200"><path d="M646.04953 959.552176c63.7223 0 89.550549-42.445718 89.550549-111.942535-2.710738-83.632769-25.216311-166.888961-60.720943-242.506173 49.876967-4.809539 100.190887-3.702322 150.240793-3.76065 84.391039 0 134.326335-34.981722 134.326335-100.744495 0.64059-26.673499-13.993712-48.566112-34.95-63.929008l0.639566-0.903579c18.189268-41.277102 16.820084-81.800028-23.028483-111.036909l0.642636-0.904603c18.189268-41.247426 16.820084-81.796958-23.001877-111.036909l0.61296-0.903579c12.593829-34.979676 9.795087-19.034519 11.922541-47.107901 0-61.131289-45.271066-100.745519-111.908766-100.745519L646.04953 64.030315c-74.013691 0-158.521386 7.054673-233.320976 18.247596-19.298532 3.178389-38.595017 6.121418-57.71754 10.233062l0-6.092765c0-12.359492-10.028401-22.387893-22.387893-22.387893L86.359368 64.030315c-12.358469 0-22.38687 10.028401-22.38687 22.387893l0 537.312502c0 12.359492 10.028401 22.387893 22.38687 22.387893l246.263753 0c12.359492 0 22.387893-10.028401 22.387893-22.387893l0-3.848655c49.089022 29.616528 85.002976 76.549443 120.886231 120.248711 9.386788 12.536524 18.336624 26.264177 27.255761 41.627073 12.592806 21.745257 54.481845 107.364263 65.122183 124.389008C589.322551 939.845345 612.293729 959.552176 646.04953 959.552176zM108.747261 601.342818 108.747261 108.807125l201.486944 0 0 492.535693L108.747261 601.342818zM646.04953 914.77639c-44.776809 0-67.163679-111.941512-134.326335-201.491037-41.393759-56.816007-91.299379-105.148805-150.299121-143.54223l-6.41306-2.971681L355.011015 139.094942c95.088682-23.348778 193.589067-26.674523 291.038516-30.287817 0 0 89.550549 0 134.325311 0 44.74611 0 67.134003 22.385846 67.134003 55.969733 0 33.580816-22.388916 33.580816-22.388916 55.971779 0 22.385846 44.775786 22.385846 44.775786 55.968709 0 33.580816-22.38687 33.580816-22.38687 55.969733 0 22.387893 44.774763 22.387893 44.774763 55.971779 0 33.579793-22.387893 33.579793-22.387893 55.969733 0 22.385846 44.775786 22.385846 44.775786 55.969733 0 33.579793-22.387893 55.969733-89.551572 55.969733-156.683529 0-223.847208 0-201.458291 44.774763 24.399713 48.798403 67.162656 156.717298 67.162656 246.266823C690.824293 892.387473 681.087535 914.77639 646.04953 914.77639z" fill="#707070" p-id="1593"></path></svg>